<svg xmlns="http://www.w3.org/2000/svg">
	<symbol viewBox="0 0 64 64" id="instagram" fill="currentColor">
		<path d="M13.2 0C5.9 0 0 6 0 13.2v38c0 7.3 6 13.2 13.2 13.2h38c7.3 0 13.2-6 13.2-13.2v-38c0-7.3-6-13.2-13.2-13.2zm38 7.3h4.4q-1.4.1-1.5 1.5v4.4q.2 1.3 1.5 1.4h4.6q1.4-.1 1.5-1.4V8.8q-.1-1.3-1.5-1.5zm-19 3a22 22 0 0 1 18.5 10.2h6.4v29.2c0 4-3.3 7.4-7.4 7.4h-35a7.4 7.4 0 0 1-7.4-7.4V20.5h6.3a22 22 0 0 1 18.6-10.3m0 2.9c-10.5 0-18 8.5-18 19s7.5 19 18 19a19 19 0 0 0 0-38m0 5.8a13.2 13.2 0 1 1 0 26.4 13.2 13.2 0 0 1 0-26.4m0 0"/>
	</symbol>
	<symbol viewBox="0 0 64 64" id="linkedin" fill="currentColor">
		<path d="M58.1 0H5.8A6 6 0 0 0 0 5.8v52.3c0 3.2 2.6 5.8 5.8 5.8h52.3c3.2 0 5.8-2.6 5.8-5.8V5.8c0-3.2-2.6-5.8-5.8-5.8M20.2 52.3h-8.6V24.7h8.6Zm-4.4-31.5a5 5 0 1 1 0-10 5 5 0 0 1 0 10m36.5 31.5h-8.6V38.9c0-3.2 0-7.3-4.4-7.3S34 35 34 38.6v13.7h-8.5V24.7h8.2v3.8h.1A9 9 0 0 1 42 24c8.7 0 10.3 5.7 10.3 13.2Zm0 0"/>
	</symbol>
	<symbol viewBox="0 0 64 64" id="udemy" fill="currentColor">
		<path d="M30.2 0a31 31 0 0 0-25 14.2 32 32 0 0 0 26.5 49.5h2.9a31.5 31.5 0 0 0 28.6-29A32 32 0 0 0 30.2 0m2.3 5 2 1 10.8 6.5v8.3l-.9-.6-2.7-1.6-3.6-2.2-6.5-3.8-.5.4c-.4.1-1.5.8-2.5 1.4l-5.8 3.5-4.9 2.8v-8.1l.7-.4 1-.7q.6-.2 1.6-.9l2.1-1.2 8.3-5zM25 36.6v9.5q.2 2.2 1.4 3.9l1.5 1.4q1.2.6 2.5 1h2.3a6.5 6.5 0 0 0 5.4-6.5V27.7h7.2v9.8l-.1 10.9v.2l-.4 1.5a11 11 0 0 1-4.6 6.7 14 14 0 0 1-6 2.3h-.5l-.6.1h-.4l-1.5.1H30l-.4-.1-1-.1h-.3l-.5-.2h-.4c-.4-.2-1.6-.5-2.1-.8q-3-1.2-5-3.7a12 12 0 0 1-2.3-5.9V27.6h7Zm0 0"/>
	</symbol>
	<symbol viewBox="0 0 64 64" id="youtube" fill="currentColor">
		<path d="m8.6 0 4.8 17.2v8.3h4.1v-8.3L22.4 0h-4.2l-1.7 7.8-1 5h-.1l-1-5L12.9 0Zm18.6 6.5q-2.1 0-3.4.8t-2 2.7q-.5 1.8-.5 4.8v2.7q0 3 .5 4.8t1.8 2.6 3.5.9 3.4-.9 1.8-2.6q.6-1.8.6-4.8v-2.7q0-3-.6-4.8t-1.8-2.7-3.3-.8m7.9.4v13.9q0 2.6.8 3.7.9 1.3 2.8 1.3 2.5 0 4-2.6l.4 2.3h3.3V6.9h-4.2v14.7l-.7.9-1 .3q-.7 0-1-.5t-.3-1.8V7Zm-8 2.5q.9 0 1.2.9t.4 3V19a9 9 0 0 1-.4 3q-.3 1-1.2 1t-1.2-1q-.4-.9-.4-3v-5.8a9 9 0 0 1 .4-2.9q.3-1 1.2-1M6.4 29A6.5 6.5 0 0 0 0 35.4V58c0 3.5 2.9 6.4 6.4 6.4h45.2c3.5 0 6.4-2.9 6.4-6.4V35.4c0-3.5-2.9-6.4-6.4-6.4Zm22.8 6.4h3.4v8.3q.4-.8 1.3-1.5.9-.5 1.8-.5 1.3 0 2 .7a4 4 0 0 1 1 2.1q.3 1.5.3 4.1v2.5q0 3.5-.8 5.2a3 3 0 0 1-2.6 1.6q-1 0-1.9-.4a3 3 0 0 1-1.2-1.3l-.4 1.5h-3ZM8 36.2h10.5v2.9H15v18.6h-3.5V39.1H8Zm37.4 5.5a5 5 0 0 1 2.8.7q1 .6 1.4 2 .4 1.5.4 4V51h-6v.8l.2 2.3q0 .8.3 1.1t.9.3q.8 0 1-.6.4-.5.4-2l3 .2v.5q0 2.3-1.1 3.3t-3.4 1q-2.6 0-3.6-1.6t-1-5v-2.8q0-3.5 1-5.2 1.1-1.6 3.7-1.6m-28 .3H21v11.5q0 1 .2 1.5t.8.5l.9-.3q.4-.3.6-.7V42H27v15.7h-2.7l-.3-2h-.1Q22.7 58 20.5 58q-1.5 0-2.3-1t-.8-3.3Zm28 2q-.6 0-.9.4l-.3 1.1-.1 2.3v1.1h2.6v-1.1l-.1-2.3q-.1-.8-.4-1-.3-.4-.8-.4m-11.3.2q-.4 0-1 .4l-.5 1v9a2 2 0 0 0 1.4.8q.5 0 .9-.4.3-.4.4-1.4l.2-2.7v-2l-.1-2.8q-.1-1-.4-1.5a1 1 0 0 0-.9-.4m0 0"/>
	</symbol>
	<symbol viewBox="0 0 16 16" id="articles" fill="currentColor">
		<path d="M14 4V2H0v11q0 1 1 1h13.5q1.4-.1 1.5-1.5V4zm-1 9H1V3h12zM2 5h10v1H2zm6 2h4v1H8zm0 2h4v1H8zm0 2h3v1H8zM2 7h5v5H2z"/>
	</symbol>
	<symbol viewBox="0 0 24 24" id="courses" fill="currentColor">
		<g>
			<path id="svg_1" d="m8,2l0,20l-4,0l0,-4l-2,0l0,-2l2,0l0,-3l-2,0l0,-2l2,0l0,-3l-2,0l0,-2l2,0l0,-4l4,0zm12,0a2,2 0 0 1 2,2l0,16a2,2 0 0 1 -2,2l-10,0l0,-20l10,0z"/>
		</g>
	</symbol>
	<symbol viewBox="0 0 24 24" id="hamburger" stroke="currentColor" stroke-linecap="round" stroke-linejoin="round" stroke-width="2">
		<g>
			<path d="m1.71874,8.23764l20.56252,0m-14.86109,7.52472l14.86109,0"/>
		</g>
	</symbol>
	<symbol viewBox="0 0 512 512" id="newsletter" fill="currentColor">
		<path d="M437.3 80H74.7A43 43 0 0 0 32 122.7v266.6A43 43 0 0 0 74.7 432h362.6a43 43 0 0 0 42.7-42.7V122.7A43 43 0 0 0 437.3 80m-5.3 90.7L256 288 80 170.7V128l176 117.3L432 128z"/>
	</symbol>
	<symbol viewBox="0 0 24 24" id="userlogin" fill="currentColor">
		<g>
			<path clip-rule="evenodd" d="m20.2,20.6a12,12 0 0 0 3.8,-8.6a11.9,11.9 0 1 0 -24,0a12,12 0 0 0 3.7,8.7a12,12 0 0 0 8.3,3.3a12,12 0 0 0 8.2,-3.3m-15.6,-1.7a10,10 0 0 1 7.4,-3.4a10,10 0 0 1 7.2,3.4a10,10 0 0 1 -7.2,3.1a10,10 0 0 1 -7.2,-3l-0.2,-0.1zm12,-10.7a4.7,4.7 0 1 1 -9.1,0a4.7,4.7 0 0 1 9.2,0"/>
		</g>
	</symbol>
</svg>