<svg xmlns="http://www.w3.org/2000/svg" xml:space="preserve" stroke="#444" viewBox="0 0 351 348">
	<style>@media (prefers-color-scheme:dark){svg{stroke:#fafafa}}</style>
	<g id="prefix__svg_440">
		<g id="prefix__girl">
			<g id="prefix__body">
				<g id="prefix__Layer_3">
					<path id="prefix__svg_2" d="m207.9 279.7 10.2 8.8c-2.5 2-6 5-9.3 9.8-1.5 2.1-4.8 7.4-4 8 .9.8 6-4.8 17.8-13.8l4.6-3.3-11.5-17.2z"/>
					<path id="prefix__svg_3" d="M243 267.7a16 16 0 0 1 11.2 7.9c-7 2-10.6 5.6-12.4 7.9-.2.2-3.6 4.6-2.7 5.7.7.7 2.9-.2 4.6-1 3.5-1.6 9.8-5 20-12.6l-12.2-13.3z"/>
				</g>
				<g id="prefix__svg_4">
					<g id="prefix__svg_5">
						<g id="prefix__svg_6">
							<g id="prefix__svg_7">
								<path id="prefix__svg_8" stroke-miterlimit="10" d="m209 164 .9 1.2.6 1 .5 1q0 .4.3.6l.2.5-.4-.4-.9-1.5-1.6-2" class="prefix__st1"/>
							</g>
						</g>
					</g>
					<g id="prefix__svg_9">
						<g id="prefix__svg_10">
							<g id="prefix__svg_11">
								<path id="prefix__svg_12" stroke-miterlimit="10" d="M214.3 206.3q-.2 0-.3-1.6l.1-2 .5-2.4a15 15 0 0 0 .2-6.2l-1.6-7.7-3.7-20 4.7 19.7 1.4 7.9q.3 1.8.2 3.5l-.6 3-.8 4.2z" class="prefix__st1"/>
							</g>
						</g>
					</g>
					<g id="prefix__svg_13">
						<g id="prefix__svg_14">
							<g id="prefix__svg_15">
								<path id="prefix__svg_16" stroke-miterlimit="10" d="m202 281.9-1-.3-1-.5-1.4-.7-1.8-1-.9-.6-1-.7a35 35 0 0 1-8.3-9.4 30 30 0 0 1-4-16.1 38 38 0 0 1 5.2-18l.2-.5.3-.5.6-1 1.2-1.9 1.2-1.7 1.3-1.8q5.3-6.6 10-10.8a197 197 0 0 1 9.9-8l-2 1.9-7.3 6.6a90 90 0 0 0-10 10.9l-1.2 1.7-1.2 1.7-1.1 1.9-.6 1-.2.4-.3.5a38 38 0 0 0-5.1 17.6 31 31 0 0 0 7.6 21.2q2.1 2.4 4.1 3.9l1 .7.9.6 1.6 1 1.4.8 1 .5z" class="prefix__st1"/>
							</g>
						</g>
					</g>
					<g id="prefix__svg_17">
						<g id="prefix__svg_18">
							<g id="prefix__svg_19">
								<path id="prefix__svg_20" stroke-miterlimit="10" d="m212.2 248.6 1.3-.8.7-.4.9-.5 2-1.2 1.3-.7 1.2-.9 2.8-1.8a77 77 0 0 0 13.8-12.5l1-1.1.8-1.1 1.5-2 .6-.7 1.5-1.9-.7 1.4-.4.8-.5.8-1.4 2-.8 1.1-1 1.2-2.2 2.6A61 61 0 0 1 223 243l-2.8 1.8-1.3.8-1.3.7-2.2 1-.9.5q-.4 0-.7.3z" class="prefix__st1"/>
							</g>
						</g>
					</g>
					<g id="prefix__svg_21">
						<g id="prefix__svg_22">
							<g id="prefix__svg_23">
								<path id="prefix__svg_24" stroke-miterlimit="10" d="M211.2 252.3c-.1-.2.4-1 .7-2q.3-1.7.5-2 .2 0 .5.7v1.7q-.4 1-1 1.4t-.7.2z" class="prefix__st1"/>
							</g>
						</g>
					</g>
					<g id="prefix__svg_25">
						<g id="prefix__svg_26">
							<g id="prefix__svg_27">
								<path id="prefix__svg_28" stroke-miterlimit="10" d="M220.8 265.6c-.3.2-2-3.2-4.6-6.9l-2-2.5-1.6-2.1q-.7-1-.9-1.6v-.8l.4.6 1 1.4 1.8 1.9a31 31 0 0 1 5 7.7q1 2.2.9 2.3z" class="prefix__st1"/>
							</g>
						</g>
					</g>
					<g id="prefix__svg_29">
						<g id="prefix__svg_30">
							<g id="prefix__svg_31">
								<path id="prefix__svg_32" stroke-miterlimit="10" d="M219.6 267.1q0 .3-2 3.1a70 70 0 0 1-6.1 6.6 29 29 0 0 1-4 3l-1 .5-.5.2-.5.3-.8.4-.9.3q-1.6.7-2.7.5-1-.1-1-.3h1q.8 0 2.4-.8l.8-.4q.4-.3.9-.4l.4-.3.5-.2.9-.6a35 35 0 0 0 7.3-6.3c1-1 2-2 2.7-2.9a14 14 0 0 1 2.6-2.7z" class="prefix__st1"/>
							</g>
						</g>
					</g>
					<g id="prefix__svg_33">
						<g id="prefix__svg_34">
							<g id="prefix__svg_35">
								<path id="prefix__svg_36" stroke-miterlimit="10" d="M243.8 246c-.1-.2 1.5-2.2 4-5.4q2.1-2.5 4.5-5.9 2.3-3.3 4.6-7.6a42 42 0 0 0 4-13.8v-.8l.1-.4v-.4l-.1-4-.2-.9v-.7l-.2-.6v-.5l.2.5.2.5.1.4.1.4.2 1 .2 1.1.2 2.9v1.6l-.2 1.8a35 35 0 0 1-3.8 12.4 57 57 0 0 1-9.3 13.5l-3.3 3.7z" class="prefix__st1"/>
							</g>
						</g>
					</g>
					<g id="prefix__svg_37">
						<g id="prefix__svg_38">
							<g id="prefix__svg_39">
								<path id="prefix__svg_40" stroke-miterlimit="10" d="m245.3 247.7-.2-.5v-1l-.2-1v-.5q.3-.1.7.2.5.4.5 1.2 0 1-.3 1.3t-.5.3z" class="prefix__st1"/>
							</g>
						</g>
					</g>
					<g id="prefix__svg_41">
						<g id="prefix__svg_42">
							<g id="prefix__svg_43">
								<path id="prefix__svg_44" stroke-miterlimit="10" d="M258.2 255.1c-.2 0-.2-1-.9-2.1a10 10 0 0 0-4-3.5q-3.2-1.3-5.3-1.6-2.2-.2-2.4-.4.2-.2 2.4-.3 2.4.1 5.7 1.4c3.3 1.3 3.7 2.6 4.3 4q.4 1.2.3 1.8z" class="prefix__st1"/>
							</g>
						</g>
					</g>
					<g id="prefix__svg_45">
						<g id="prefix__svg_46">
							<g id="prefix__svg_47">
								<path id="prefix__svg_48" stroke-miterlimit="10" d="M234.3 269q-.2.3-4.3-1.2a29 29 0 0 1-12.8-10.5q-1.5-2.4-2-4.5-.5-2-.5-3.2v-1.2l.3 1.2a18 18 0 0 0 3 7.2 31 31 0 0 0 12.3 10.4z" class="prefix__st1"/>
							</g>
						</g>
					</g>
					<g id="prefix__svg_49">
						<g id="prefix__svg_50">
							<g id="prefix__svg_51">
								<path id="prefix__svg_52" stroke-miterlimit="10" d="m257 255.1-.3 1q-.5 1.1-1.7 2.5-1.3 1.5-3.3 3l-4.3 3a32 32 0 0 1-8.8 4.1l-1.7.3h-2.3c0-.3 1.5-.2 3.8-1q1.8-.5 4-1.5t4.5-2.7l4.3-3 3.3-2.7q1.3-1.2 1.8-2.2z" class="prefix__st1"/>
							</g>
						</g>
					</g>
					<g id="prefix__svg_53">
						<g id="prefix__svg_54">
							<g id="prefix__svg_55">
								<path id="prefix__svg_56" stroke-miterlimit="10" d="m231.6 203.5-.6-1.8-1.4-5-.8-3.6-.9-4.1a156 156 0 0 1-2.8-23.1l-.1-3.6V155c.2 0 .3 2.8.6 7.2l.3 3.6.4 4.2a304 304 0 0 0 2.5 18.8l.8 4.1.7 3.6c.9 4.3 1.5 7 1.3 7z" class="prefix__st1"/>
							</g>
						</g>
					</g>
					<g id="prefix__svg_57">
						<g id="prefix__svg_58">
							<g id="prefix__svg_59">
								<path id="prefix__svg_60" stroke-miterlimit="10" d="m268 201.3-1 1q-1.2.8-3.4 1.8t-5.3 1.7-6.8.8l-6.8.2q-3.2 0-5.6-.3c-2.4-.3-2.9-.6-3.7-1q-.3 0-.5-.2l-.4-.2q-.3 0-.3-.2c0-.1 1.8.6 5 1h5.4l6.8-.2q3.6-.2 6.7-.8 3-.5 5.2-1.4t3.4-1.5z" class="prefix__st1"/>
							</g>
						</g>
					</g>
					<g id="prefix__svg_61">
						<g id="prefix__svg_62">
							<g id="prefix__svg_63">
								<path id="prefix__svg_64" stroke-miterlimit="10" d="m262.6 145.6-1.2-.2q-1.2-.3-3.5 0a88 88 0 0 0-23 4.2c-2.8 1-4.6 1.5-4.6 1.4q.1-.3 4.4-2a72 72 0 0 1 23.1-4.3q2.5 0 3.7.3 1.2.5 1.1.6z" class="prefix__st1"/>
							</g>
						</g>
					</g>
					<g id="prefix__svg_65">
						<g id="prefix__svg_66">
							<g id="prefix__svg_67">
								<path id="prefix__svg_68" stroke-miterlimit="10" d="M271 190.6c-.2 0-.3-2.5-.7-6.5l-2-15.5-1.4-8.6-1.4-6.9c-.9-3.9-1.4-6.3-1.3-6.4l.6 1.7.6 2 .7 2.6a139 139 0 0 1 4.3 24l.6 7 .1 2.8v2z" class="prefix__st1"/>
							</g>
						</g>
					</g>
					<g id="prefix__svg_69">
						<g id="prefix__svg_70">
							<g id="prefix__svg_71">
								<path id="prefix__svg_72" stroke-miterlimit="10" d="M176 339h.2l.7-.3 2.6-.7 10.3-2.7c9-2.2 22-5.3 38.1-8.4l12.7-2.4 13.9-2.4 7.2-1.2 7.6-1.4q7.5-1.4 15.5-3.4t16-4.6l2-.7 1-.3 1-.4 4.1-1.6 4-1.7 1-.4 1-.5 2-1 2-1 2-1 4-2.2q3.9-2.2 7-5.4 1.6-1.5 2.8-3.6 1-2 1.5-4.1a11 11 0 0 0-1.8-8.6q-1.4-1.8-3.1-3.3c-1.7-1.5-2.5-1.8-3.8-2.5q-2-1.2-4.1-2.1l-2.1-1-2.1-.9a204 204 0 0 0-33.6-11.4l-2-.5-2.1-.5a19 19 0 0 1-4-1.8l-.9-.7-.3-.4-.4-.5q-.7-1-.9-2v-1.2q0-.6.2-1.1l1-2q2.4-3.3 5.5-6 3-2.6 6.2-4.8 6.6-4.2 12.4-8.4a23 23 0 0 0 3.9-3.7l.9-1.4.4-.7.2-.8q.3-.7.3-1.6v-.4l-.1-.4-.2-.7-.7-1.4q-1-1.4-2.2-2.4c-1.2-1-1.8-1.3-2.7-1.8q-2.8-1.5-5.7-2.5c-4-1.2-7.8-2-11.3-3.4a34 34 0 0 1-5-2.4q-2.1-1.5-3.8-3.3t-3.2-3.4l-2.3-1.6-.5-.2-.9-.4-1-.4-1-.3-1.9-.4-6.8-1.3-3.3-1.2q-.3 0-.5-.3t-.6-.3-.4-.3l-.9-.7-.6-.8q-.7-1.8-.1-2.7.3-.4.5-.4h.2-.2q-.2 0-.5.5-.5.9.3 2.5l.5.8.8.6.5.4.5.2.6.3.6.3 2.7.9 3.2.6 3.6.5 2 .5 1 .2 1 .4 1 .4.4.2.5.3 1.8 1.4q1.8 1.5 3.4 3.4a18 18 0 0 0 6.1 4.5l2.5 1c3.4 1.3 7.3 2.1 11.3 3.3a30 30 0 0 1 8.6 4.4q1.3 1 2.4 2.4l.8 1.6.3 1.4v.4q0 1-.2 1.9 0 .5-.3.8l-.4.8a17 17 0 0 1-2.2 3l-2.8 2.3q-6 4.3-12.4 8.5-3.2 2.2-6.2 4.8l-.7.6-.7.7-.7.7-.7.7-.7.8-.6.7-.6.8-.6.8-.8 1.8-.2.9v.9q.3 1.9 2.2 3l.8.5 1 .5 1.8.7 2 .5 2.2.5a211 211 0 0 1 33.7 11.4l2.1 1 2.2 1a62 62 0 0 1 8 4.7q2 1.5 3.4 3.5a12 12 0 0 1 2 9.2 17 17 0 0 1-4.5 8.3q-3.4 3.3-7.4 5.6l-4 2.2-2 1-2 1-2 1-1 .5-1 .4-4 1.7-4 1.6-1 .4-1 .3-2.1.7q-8.1 2.8-16.1 4.6a310 310 0 0 1-15.6 3.3l-7.6 1.4-7.3 1.2-13.8 2.3a760 760 0 0 0-61.2 13l-2.7.6-.6.2z" class="prefix__st1"/>
							</g>
						</g>
					</g>
					<g id="prefix__svg_73">
						<g id="prefix__svg_74">
							<g id="prefix__svg_75">
								<path id="prefix__svg_76" stroke-miterlimit="10" d="m191.1 348 .2-.1.7-.2 2.7-.6 10.3-2.4 50.7-11 13.7-3.2a229 229 0 0 0 29.3-9.4 457 457 0 0 0 38.8-18.5l1.9-1.2.9-.7.9-.7.9-.7.8-.7 1.6-1.6q3.2-3.2 4.5-7.7a18 18 0 0 0 0-9 23 23 0 0 0-4-8.1l-.7-1-.3-.4-.4-.4-.8-.8-.8-.8-3.6-2.8-3.9-2.3-2-1a61 61 0 0 0-10.5-3.5c-5.7-1.5-11.5-2.5-17-4a60 60 0 0 1-8-2.7l-1-.5-1-.4-1.8-1q-.9-.4-1.8-1.2-.4-.3-.7-.9-.4-.7-.3-1.2 0-1.2.6-2.1l.2-.5.3-.5q.2-.5.6-.8a18 18 0 0 1 2.7-3q3.1-2.7 6.2-4.9 6-4.7 10.6-10.4l2.1-2.9a15 15 0 0 0 2.3-4.6 6 6 0 0 0 0-3.2l-.7-1.4a10 10 0 0 0-3.5-3.3l-.6-.4-.7-.4-3-1.2-2.9-1-5.8-1.4q-3-.7-5.5-1.6a61 61 0 0 1-9.6-4.4l-7.8-4.6-6.7-3.8a47 47 0 0 0-9.8-4l-2.7-.6-.6-.2h-.3 1a28 28 0 0 1 7 2q2.4.9 5.5 2.5t6.8 3.7 7.9 4.5a59 59 0 0 0 15 5.8l5.8 1.4a39 39 0 0 1 6 2.3l.7.3.7.5 1.4 1a10 10 0 0 1 2.3 2.5 6 6 0 0 1 1 3.4l-.2 1.8a17 17 0 0 1-2.4 4.8 62 62 0 0 1-12.8 13.6q-3.2 2.3-6.2 4.7-1.5 1.4-2.6 3l-.5.7-.3.5-.2.4-.4 1.8q0 .8.7 1.5t1.6 1l1.8 1 1 .4.9.4q3.8 1.6 8 2.7c5.4 1.5 11.1 2.5 16.9 4q4.3 1 8.6 2.7l2 .9 2.2 1a33 33 0 0 1 7.6 5.2l.9.8.8.9.4.4.4.5.7.9q1.5 2 2.5 4 1 2.3 1.7 4.5.6 2.4.6 4.8t-.7 4.7q-1.3 4.6-4.7 8l-1.7 1.7-.9.7-.9.8-.9.7-1 .6-1.8 1.3q-4 2.4-8 4.3-15.9 8-31 14.2a210 210 0 0 1-29.5 9.4q-7 1.7-13.7 3l-12.6 2.8-38.1 8-10.4 2.1-2.7.6h-.7z" class="prefix__st1"/>
							</g>
						</g>
					</g>
					<g id="prefix__svg_77">
						<g id="prefix__svg_78">
							<g id="prefix__svg_79">
								<path id="prefix__svg_80" stroke-miterlimit="10" d="M235.6 190.7a162 162 0 0 1-3.1-31.6q.2.1.5 4.6c.3 4.5.6 6.8 1 11.2z" class="prefix__st1"/>
							</g>
						</g>
					</g>
					<g id="prefix__svg_81">
						<g id="prefix__svg_82">
							<g id="prefix__svg_83">
								<path id="prefix__svg_84" stroke-miterlimit="10" d="m223.6 219.7-.7-.3-1.4-1.4q-.8-1-1.4-2.6a9 9 0 0 1-.7-3.5q0-4 1-6.4 1-2.3 1.3-2.3l-.6 2.5q-.8 2.5-.8 6.1a12 12 0 0 0 1.8 5.8c.8 1.3 1.6 2 1.5 2.1z" class="prefix__st1"/>
							</g>
						</g>
					</g>
					<g id="prefix__svg_85">
						<g id="prefix__svg_86">
							<g id="prefix__svg_87">
								<path id="prefix__svg_88" stroke-miterlimit="10" d="m262.8 189.2-.5.5-.5.4-.4.7-.4.7-.2.6q0 .6-.2.7t-.4-.7q-.2-.3 0-.8 0-.6.3-1 .3-.6.7-.8l.8-.4q.8-.1.8 0z" class="prefix__st1"/>
							</g>
						</g>
					</g>
					<g id="prefix__svg_89">
						<g id="prefix__svg_90">
							<g id="prefix__svg_91">
								<path id="prefix__svg_92" stroke-miterlimit="10" d="M308.2 208.6h-1.5q-1.4 0-3 1-1.4 1.2-2 2.4l-.5 1.3q-.3 0 0-1.5 0-.7.6-1.5t1.4-1.5q1-.7 2-.8h1.6q1.4.3 1.4.6z" class="prefix__st1"/>
							</g>
						</g>
					</g>
					<g id="prefix__svg_93">
						<g id="prefix__svg_94">
							<g id="prefix__svg_95">
								<path id="prefix__svg_96" stroke-miterlimit="10" d="m309.7 211.7-.9.2-1 .3q-.4 0-1 .4l-1 .6-.7.6q-.6.7-.8.6t.2-1l.7-.9a5 5 0 0 1 2.5-1.2h1q1 .1 1 .4z" class="prefix__st1"/>
							</g>
						</g>
					</g>
					<g id="prefix__svg_97">
						<g id="prefix__svg_98">
							<g id="prefix__svg_99">
								<path id="prefix__svg_100" stroke-miterlimit="10" d="M295.3 252.3q0 .2-1.4.4-1.4 0-3 1a5 5 0 0 0-1.9 2.3l-.3 1.3-.3-.3v-1.1q0-.7.5-1.6.4-.8 1.5-1.5 1-.6 1.9-.7.9-.2 1.6-.1 1.4 0 1.4.3z" class="prefix__st1"/>
							</g>
						</g>
					</g>
					<g id="prefix__svg_101">
						<g id="prefix__svg_102">
							<g id="prefix__svg_103">
								<path id="prefix__svg_104" stroke-miterlimit="10" d="m298.2 260.9-.2-.3-.1-.2v-.2l-.2-.6v-.8l.2-.8.7-1.7 1.3-1.3.7-.4.4-.1.3-.2h.6l.2-.1h.2l.4.1q-.1.2-1.1.6l-.3.2-.3.1-.5.5q-.6.5-1 1.1l-.8 1.5-.2.6v.6q-.1 1.2-.3 1.4z" class="prefix__st1"/>
							</g>
						</g>
					</g>
					<g id="prefix__svg_105">
						<g id="prefix__svg_106">
							<g id="prefix__svg_107">
								<path id="prefix__svg_108" stroke-miterlimit="10" d="M331.4 275.4q-.3-.2.7-2l.2-.5.4-.4.8-1q.9-1 2.2-1.7a13 13 0 0 1 3.8-1.4l.5-.1h.5q2 0 2.1.3l-2 .3-.5.1-.5.1-1 .4-2.4 1-2.1 1.7-.8.8-.3.4-.3.4z" class="prefix__st1"/>
							</g>
						</g>
					</g>
					<g id="prefix__svg_109">
						<g id="prefix__svg_110">
							<g id="prefix__svg_111">
								<path id="prefix__svg_112" stroke-miterlimit="10" d="M337.5 277.9q-.2-.2.6-1.2a7 7 0 0 1 5.7-2.5q1.3 0 1.3.4l-1.2.3-1.3.3-1.5.5-2.5 1.5z" class="prefix__st1"/>
							</g>
						</g>
					</g>
					<g id="prefix__svg_113">
						<g id="prefix__svg_114">
							<g id="prefix__svg_115">
								<path id="prefix__svg_116" stroke-miterlimit="10" d="M315.9 313.1q-.3-.2-1.6-2.2c-.8-1.2-1.8-2-1.7-2.2l.9.2a5 5 0 0 1 2.5 3.3z" class="prefix__st1"/>
							</g>
						</g>
					</g>
					<g id="prefix__svg_117">
						<g id="prefix__svg_118">
							<g id="prefix__svg_119">
								<path id="prefix__svg_120" stroke-miterlimit="10" d="M264 331.2v-1.4l-.1-.7-.1-.8a9 9 0 0 0-1.5-3.2l-.5-.7-.4-.5-1-1q.1-.3 1.4.5l.6.5.6.7a8 8 0 0 1 1.6 3.6v1.7q-.2 1.4-.5 1.3z" class="prefix__st1"/>
							</g>
						</g>
					</g>
					<g id="prefix__svg_121">
						<g id="prefix__svg_122">
							<g id="prefix__svg_123">
								<path id="prefix__svg_124" stroke-miterlimit="10" d="M270.5 327q-.4-.2-1.2-2.2c-.6-1-1.2-2-1-2.1q.2-.1.8.3.7.6 1 1.4.5 1 .5 1.8z" class="prefix__st1"/>
							</g>
						</g>
					</g>
					<g id="prefix__svg_125">
						<g id="prefix__svg_126">
							<g id="prefix__svg_127">
								<path id="prefix__svg_128" stroke-miterlimit="10" d="M334.5 301c-.3.2-1-.8-2.3-1.7-1.1-1-2.3-1.5-2.2-1.8h1q.8.3 1.9 1 1 .8 1.4 1.6t.2 1z" class="prefix__st1"/>
							</g>
						</g>
					</g>
					<g id="prefix__svg_129">
						<g id="prefix__svg_130">
							<g id="prefix__svg_131">
								<path id="prefix__svg_132" stroke-miterlimit="10" d="M290.1 242.2c0 .3-1.5 0-3.2-.2s-3.2-.3-3.2-.6 1.4-.6 3.3-.3 3.2.9 3.1 1.1z" class="prefix__st1"/>
							</g>
						</g>
					</g>
					<circle id="prefix__svg_133" r="3.1" cy="220" cx="280.1"/>
					<path id="prefix__svg_134" d="M286.3 216.9h.6-1.2z"/>
				</g>
			</g>
			<g id="prefix__head">
				<path id="prefix__svg_135" d="M215 108.6c.9 1.6 2.3 2.3 5 3.7q3.5 1.6 5.6 2.1c.1-.3.7-1.5 1.9-1.7 1.7-.4 3.1 1.6 3.5 2.1s1.6 2.2 1 4.1c-.4 1.4-1.4 2.1-1.8 2.4l.6 3.7c1.2 6.1 1.7 9.2 3.6 11.2 3.4 3.7 9.7 3 11.9 2.7s8.3-1 12-6.3c2.4-3.6 3.2-8.6 1.7-12.7-2-5.8-6.8-5-11.6-12.5-3.4-5.4-1.7-7-4.6-9.6-6-5.5-16.8-2-21-.8-6.7 2-7.9 4.7-8.2 5.5a7 7 0 0 0 .4 6z"/>
				<g id="prefix__svg_136">
					<g id="prefix__svg_137">
						<g id="prefix__svg_138">
							<path id="prefix__svg_139" stroke-miterlimit="10" d="m222.3 146.8-2.3.2c-2.2.1-3.5-.2-5.7-.6l-3.1-.8q-1.5-.4-2.4-1.2c-1-.8-1-1-1.2-1.4l-.1-.3v-.2q-.2 0 0-.1c0-.1.5.7 1.7 1.4q.8.6 2.2 1l3 .6c4.4.9 8 1 8 1.4z" class="prefix__st1"/>
						</g>
					</g>
				</g>
				<g id="prefix__svg_140">
					<g id="prefix__svg_141">
						<g id="prefix__svg_142">
							<path id="prefix__svg_143" stroke-miterlimit="10" d="m209.4 137.7-.4-.4-.3-.5-.3-.4-.2-.4-.6-1-.6-1.2-.6-1.4-.6-1.7-.6-1.8-.5-2-.4-2.2-.2-1.1-.1-1.2a36 36 0 0 1 5-21.3l.6-1 1.2-1.8 1.3-1.6 1.3-1.4 1.2-1.2q.6-.7 1.2-1l1-1 1-.6.3-.3.4-.2.5-.4.5-.2-.4.4-.5.4-.3.3-.3.3-.9.7-1 1-1 1-1.2 1.3-1.2 1.4-1.2 1.7-1.3 1.8-.5 1-.6 1a37 37 0 0 0-4.2 19.7v1.2l.2 1q0 1.2.3 2.2l.5 2 .5 1.8.5 1.6.5 1.4.6 1.3.4 1 .2.4.2.4.3.6z" class="prefix__st1"/>
						</g>
					</g>
				</g>
				<g id="prefix__svg_144">
					<g id="prefix__svg_145">
						<g id="prefix__svg_146">
							<path id="prefix__svg_147" stroke-miterlimit="10" d="m212.8 120-.6.1h-1.5l-1-.6q-.4-.4-.6-1.3 0-.8.4-1.4l.8-1.1c2.2-2.9 3.4-5.6 3.7-5.5q.1.1-.5 2c-.6 1.8-1.3 2.6-2.4 4l-.8 1q-.3.5-.3 1l.3.7.7.5q.8.4 1.2.4.6 0 .6.2z" class="prefix__st1"/>
						</g>
					</g>
				</g>
				<g id="prefix__svg_148">
					<g id="prefix__svg_149">
						<g id="prefix__svg_150">
							<path id="prefix__svg_151" stroke-miterlimit="10" d="m216.6 139.9 1.2-.3q1-.3 2.5-1.6a5 5 0 0 0 1.6-4q0-1.2-1-2.2-.3-.5-1-.6l-1.4-.3q-1.5 0-3-.3-.9-.2-1.5-.8c-.6-.6-.6-.8-.8-1.3q-.5-1.2-.7-2.5l-.3-2.2q-.8-4.2-.5-4.3l1.1 4.2.5 2.1q.2 1.2.7 2.4l.6 1q.6.5 1 .5 1.5.3 3 .3l1.6.2q.8.3 1.4 1 1.2 1.3 1.2 2.8t-.6 2.6-1.4 1.8a6 6 0 0 1-3 1.4q-1.1.2-1.2 0z" class="prefix__st1"/>
						</g>
					</g>
				</g>
				<g id="prefix__svg_152">
					<g id="prefix__svg_153">
						<g id="prefix__svg_154">
							<path id="prefix__svg_155" stroke-miterlimit="10" d="M212.3 124h1.4l1.3-.8.7-.6q.3-.4.3-.7v-.2l-.2-.1h-.6l-.7.4-.6.4q-.7.4-1.2.4t-.4-.3l.4-.1.8-.5.5-.6.9-.5.6-.2.7.1q.5.2.6.5l.2.9q0 .7-.6 1.1-.4.5-.9.7-.8.6-1.7.7t-1.2-.2-.3-.3z" class="prefix__st1"/>
						</g>
					</g>
				</g>
				<g id="prefix__svg_156">
					<g id="prefix__svg_157">
						<g id="prefix__svg_158">
							<path id="prefix__svg_159" stroke-miterlimit="10" d="M216.1 115.4q-.5 0-.7-1.5.1-1.6.5-1.6.4.1.5 1.5t-.3 1.6z" class="prefix__st1"/>
						</g>
					</g>
				</g>
				<g id="prefix__svg_160">
					<g id="prefix__svg_161">
						<g id="prefix__svg_162">
							<path id="prefix__svg_163" stroke-miterlimit="10" d="m226.1 120.7.6.4q.6.5 1.7.3.6 0 1.2-.4t1-1q.8-1.3.5-3.1a5 5 0 0 0-1.6-2.8l-.6-.4-.7-.1q-.6-.1-1.1.1l-.9.6-.4.7q0 .6-.2.6l-.1-.7q0-1 1.2-1.8.7-.4 1.6-.3.5 0 .8.2.5 0 .8.4 1.6 1.2 2 3.3a5 5 0 0 1-.7 3.9q-1.2 1.5-2.8 1.5t-2-.7l-.4-.5z" class="prefix__st1"/>
						</g>
					</g>
				</g>
				<g id="prefix__svg_164">
					<g id="prefix__svg_165">
						<g id="prefix__svg_166">
							<path id="prefix__svg_167" stroke-miterlimit="10" d="M209.4 143q-.1.1-1.6-.4a5 5 0 0 1-2.6-3 5 5 0 0 1 .5-4q.9-1.2 1.2-1l-.6 1.4q-.6 1.3-.1 3.3c.5 2 1.2 2.3 2 2.8z" class="prefix__st1"/>
						</g>
					</g>
				</g>
				<g id="prefix__svg_168">
					<g id="prefix__svg_169">
						<g id="prefix__svg_170">
							<path id="prefix__svg_171" stroke-miterlimit="10" d="m251.4 142.6.7-.3q.9-.3 2.1-1c1.2-.7 1.8-1.3 2.8-2.3s2-2.4 2.7-4a36 36 0 0 0 3-12.1 33 33 0 0 0-.6-11.3l-.3-1-.1-.5-.2-.4-.3-1-.4-1-.3-.9-.5-.9-.9-1.8-2-3.3a30 30 0 0 0-16.4-11l-1.2-.3-1.3-.3q-1.2 0-2.2-.3l-3.7-.2H230q-.8.1-.8 0h.7l2.4-.4h3.7l2.3.3 1.3.3 1.3.3a31 31 0 0 1 19 14.5q.6.8 1 1.8l.5 1 .4.9.4 1 .3 1 .1.5.2.5.2 1a31 31 0 0 1 .7 11.6q-.4 3.7-1.2 6.7-.9 3.1-2.2 5.7a16 16 0 0 1-6 6.2l-2 1z" class="prefix__st1"/>
						</g>
					</g>
				</g>
				<g id="prefix__svg_172">
					<g id="prefix__svg_173">
						<g id="prefix__svg_174">
							<path id="prefix__svg_175" stroke-miterlimit="10" d="M246.8 142.6q-.1.2-4 .7c-4 .5-6.2.4-10.1.4a98 98 0 0 1-14.2-1.3h4.2q3.9.3 10 .3l10-.1q4-.2 4.1 0z" class="prefix__st1"/>
						</g>
					</g>
				</g>
				<g id="prefix__svg_176">
					<g id="prefix__svg_177">
						<g id="prefix__svg_178">
							<path id="prefix__svg_179" stroke-miterlimit="10" d="m255 145-4.3 1a107 107 0 0 1-16.6 1.8h-3.8l-1.1-.2c-2.8-.2-4.5-.7-4.4-.7h9.3l5.9-.3c4.1-.4 8-1 10.6-1.3q4.2-.5 4.5-.4z" class="prefix__st1"/>
						</g>
					</g>
				</g>
				<g id="prefix__svg_183">
					<g id="prefix__svg_184">
						<g id="prefix__svg_185">
							<path id="prefix__svg_186" stroke-miterlimit="10" d="M255.4 144.8q.1-.2.8-.5l.5-.6q.3-.4.3-1 0-1-.6-2c-.6-1-.4-.7-.3-.8q.1-.2.8.5.4.3.7 1 .3.5.4 1.3-.1.8-.5 1.5c-.4.7-.6.6-1 .7q-.5.3-.8.1-.3 0-.3-.2z" class="prefix__st1"/>
						</g>
					</g>
				</g>
			</g>
			<g id="prefix__hand">
				<g id="prefix__svg_191">
					<g id="prefix__svg_192">
						<g id="prefix__svg_193">
							<path id="prefix__svg_194" stroke-miterlimit="10" d="M175 131.4v.3q0 .3-.4.8t-1.2.4a2 2 0 0 1-1.5-.6l-.4-.8q-.2-.4-.1-.7v-1.5l.1-.2h.2v.2h.3v.3l.3 1.2v.4l.3.5.8.4q.5 0 .8-.2z" class="prefix__st1"/>
						</g>
					</g>
				</g>
				<path id="prefix__svg_195" stroke-miterlimit="10" d="M210.6 169.5a38 38 0 0 0-5.7-5.2l-4-2.8a110 110 0 0 1-17-14.7 98 98 0 0 1-6-7l-2-3-1.5-2.2-1-2 1.3 1.8 1.6 2.1 2.2 2.8a111 111 0 0 0 26.8 24.4 58 58 0 0 1 5.7 5.4" class="prefix__st1"/>
				<path id="prefix__svg_196" stroke-miterlimit="10" d="M209.6 143c0 .2-2-.2-4.9-1.2l-1.1-.5-1.2-.5a65 65 0 0 1-8.6-4.4q-3-2-5.4-4l-2.2-1.9-1-.9-.8-.9a21 21 0 0 1-3.2-3.8l3.7 3.3.8.9 1 .8a54 54 0 0 0 7.7 5.7l5.7 3.3 2.6 1.2 1.2.6 1 .5q4.6 1.6 4.7 1.9" class="prefix__st1"/>
				<g id="prefix__svg_197">
					<g id="prefix__svg_198">
						<g id="prefix__svg_199">
							<path id="prefix__svg_200" stroke-miterlimit="10" d="M167.3 119.5q.3 0 1 1.3l.7 1.6a15 15 0 0 0 2.7 4.8q1 1 1 1.3l-1.5-.8c-1.3-.8-1.6-1.7-2.3-3l-.8-2-.4-1.7z" class="prefix__st1"/>
						</g>
					</g>
				</g>
				<g id="prefix__svg_201">
					<g id="prefix__svg_202">
						<g id="prefix__svg_203">
							<path id="prefix__svg_204" stroke-miterlimit="10" d="m167.6 119-1-.4q-1-.1-2.5.5l-1.4.7-1.3.3h-1q-.3 0-.3-.3c0-.2.5 0 1.1-.3l1.1-.5 1.4-.8q.8-.4 1.7-.4c.9 0 1 0 1.4.2q.6.2.8.6z" class="prefix__st1"/>
						</g>
					</g>
				</g>
				<g id="prefix__svg_205">
					<g id="prefix__svg_206">
						<g id="prefix__svg_207">
							<path id="prefix__svg_208" stroke-miterlimit="10" d="M167.5 116.3h-1.3l-1.4.3-3.5 1.4-.3.1-.4.4-.4.7v.4l-.4-.3.2-1.2.5-.6.4-.2.3-.3a10 10 0 0 1 3.5-1.3h1.5q.7 0 1 .3.4 0 .3.3z" class="prefix__st1"/>
						</g>
					</g>
				</g>
				<g id="prefix__svg_209">
					<g id="prefix__svg_210">
						<g id="prefix__svg_211">
							<path id="prefix__svg_212" stroke-miterlimit="10" d="M169.4 113.8q-.2.1-1.7-.7l-.4-.1-.4-.2-1-.2q-1-.3-2.3-.3a11 11 0 0 0-3.2.6l-.5.2-.4.2-1.6.7c-.1 0 .3-.7 1.3-1.3l.4-.3.4-.2 1-.4q1.2-.4 2.6-.4c1.4 0 1.7.1 2.5.4q.6 0 1 .3l.4.2.5.3q1.5.9 1.4 1.2z" class="prefix__st1"/>
						</g>
					</g>
				</g>
				<g id="prefix__svg_213">
					<g id="prefix__svg_214">
						<g id="prefix__svg_215">
							<path id="prefix__svg_216" stroke-miterlimit="10" d="M164.8 114c0 .3-1.7.2-3.7.5l-1.4.3-1.2.2q-1.2 0-1.2-.3l1-.4 1.2-.3 1.5-.4q1.6-.3 2.8 0 1 0 1 .4z" class="prefix__st1"/>
						</g>
					</g>
				</g>
				<g id="prefix__svg_217">
					<g id="prefix__svg_218">
						<g id="prefix__svg_219">
							<path id="prefix__svg_220" stroke-miterlimit="10" d="m169.6 111.8-1.8-.6a16 16 0 0 0-7-.8q-1.2.2-1.7.8t-.4 1v.3l.2.1h-.2q-.2 0-.4-.3t0-.7.3-.9q.4-.6.9-.7l1.1-.4 2.7-.2q3.1.1 4.7 1.2 1.7.9 1.6 1.2z" class="prefix__st1"/>
						</g>
					</g>
				</g>
				<g id="prefix__svg_221">
					<g id="prefix__svg_222">
						<g id="prefix__svg_223">
							<path id="prefix__svg_224" stroke-miterlimit="10" d="m180.5 124.4-.3-.2-.5-.7q-.7-1-1.4-2.8l-1.5-4.4-.9-2.5-.5-1.3-.6-1.2-.9-1-1-.8-1.3-.5-1.3-.5q-2.4-.8-4.2-1.7c-1.8-1-2-1.3-2.6-1.8l-.3-.4-.2-.3-.1-.3.2.2.3.2.4.3q.8.8 2.6 1.5l4.3 1.6 1.2.4 1.4.6 1.3.8q.6.5 1 1.2 1.4 2.8 2 5.3l1.3 4.4c.8 2.5 1.7 3.8 1.6 3.9z" class="prefix__st1"/>
						</g>
					</g>
				</g>
				<g id="prefix__svg_225">
					<g id="prefix__svg_226">
						<g id="prefix__svg_227">
							<path id="prefix__svg_228" stroke-miterlimit="10" d="M166.9 108.9h-1a6 6 0 0 1-2.3-1.3 4 4 0 0 1-1.2-2.3q0-1 .2-1t.4.9c.2.9.6 1.1 1.3 1.7l1.8 1.3q.8.5.8.7z" class="prefix__st1"/>
						</g>
					</g>
				</g>
			</g>
		</g>
		<g id="prefix__space">
			<g id="prefix__svg_229">
				<g id="prefix__svg_230">
					<g id="prefix__svg_231">
						<path id="prefix__svg_232" stroke-miterlimit="10" d="m160 292.5-.5-.2-1.3-.7q-1.9-1-5.5-2.4a59 59 0 0 0-28.7-3.1l-7.8 1.2q-4 .6-8.5.8h-4.5l-1.1-.1-1.2-.2-2.3-.4q-4.5-1.1-8.8-3.6l-1-.7-1-.7-.6-.4-.5-.3-1-.8-.9-.8-.4-.4-.5-.4-1-.9-.8-.9q-3.6-3.5-6.7-7.7l-6.3-8.5a100 100 0 0 0-10.3-11.6l-4-3-2-1.3-2.2-1.2-4.5-2q-4.5-1.7-8.7-3.6a44 44 0 0 1-8-4.3q0-.3-.4-.4l-.4-.3-.9-.7-.8-.7-.4-.4-.4-.4-.7-.7-.8-.8-1.3-1.6a38 38 0 0 1-6.9-13.6 63 63 0 0 1-2.7-17.5l-.1-4.4v-7.5l.1-.6.1.6v1.5l.2 6 .2 4.3.4 5.1a64 64 0 0 0 5.2 19q1.6 3.4 4.2 6.6l1.3 1.6.7.7.7.8.4.3.4.4.8.7.8.6.4.4q.3 0 .5.3 3.5 2.5 7.7 4.2 4.3 1.9 8.8 3.6l4.5 2 2.2 1.2 2.1 1.3a41 41 0 0 1 7.8 6.7q3.6 3.8 6.7 8.2l6.3 8.4a84 84 0 0 0 6.6 7.7l.9.9 1 .8.4.4.4.4 1 .8 1 .8.4.3.5.4 1 .7 1 .6q4.1 2.6 8.5 3.6l2.2.4 1.1.1 1.2.2h4.4q4.2-.2 8.3-.8l7.9-1.1q3.9-.5 7.3-.6a55 55 0 0 1 27 6.7l1.4.8z" class="prefix__st1"/>
					</g>
				</g>
			</g>
			<g id="prefix__svg_233">
				<g id="prefix__svg_234">
					<g id="prefix__svg_235">
						<path id="prefix__svg_236" stroke-miterlimit="10" d="m129.9 300-.9-.5-1-.5-1.5-.7q-3.2-1.7-9.6-3.4-6.5-1.6-15-1.8h-9q-4.8.1-9.8-1.2-2.4-.7-4.6-2l-1-.7-.5-.4q-.3 0-.5-.3l-1-.8-.8-.9-.4-.4-.4-.5-.8-.9-1.3-1.9-.6-1-.6-.8-1.1-2q-2-3.9-3.9-7.1l-.5-.9-.4-.8-.5-.7-.5-.8-.5-.7-.5-.7-.5-.6-.5-.6a27 27 0 0 0-8-6.4l-3.3-1.7 1 .2 2.5 1.1a28 28 0 0 1 8.3 6.3l.5.7.5.6.5.7.5.7.6.8.5.7.5.8.5.9q1.8 3.4 4 7l1 2 .6.9.7 1 1.3 1.7.7.9.4.4.4.4.8.8 1 .8.4.4.4.3 1 .6q2 1.2 4.4 2a36 36 0 0 0 9.4 1l9 .1q8.8.4 15.2 2a45 45 0 0 1 11.1 4.6l1 .6z" class="prefix__st1"/>
					</g>
				</g>
			</g>
			<g id="prefix__svg_237">
				<g id="prefix__svg_238">
					<g id="prefix__svg_239">
						<path id="prefix__svg_240" stroke-miterlimit="10" d="m127.1 15-1.3-.2-1.7-.2-2.3-.3q-2.6-.2-6.2 0a46 46 0 0 0-8.1 1.4A65 65 0 0 0 83 28.5l-1.2 1-1.2 1-1.3 1-1.2 1.2Q73 37 68 42l-9.7 9.7q-4.7 4.6-9.5 8.6l-1.2 1-1.1 1-7 5q-4.5 3-8 6t-5.6 6a27 27 0 0 0-4.4 9.2l-.2.5v.5l-.2.3V89l.2-.6q.1-1.4 1-3.8 1-2.5 3.2-5.5 2.1-3.1 5.6-6.2 3.5-3 8-6.2l4.5-3.3 2.3-1.8 1.2-1 1.1-1q4.8-4 9.5-8.5c4.7-4.5 6.4-6.4 9.7-9.7q5-5.1 10-9.5l1.2-1 1.3-1.1 1.2-1 1.3-1 5.1-3.7a65 65 0 0 1 19.7-9A44 44 0 0 1 122 14l2.3.3 1.6.4z" class="prefix__st1"/>
					</g>
				</g>
			</g>
			<g id="prefix__svg_241">
				<g id="prefix__svg_242">
					<g id="prefix__svg_243">
						<path id="prefix__svg_244" stroke-miterlimit="10" d="m99.1 16.3-2 .5a53 53 0 0 0-9.5 2.8l-4.2 1.8q-4.5 2.2-9 5.7c-4.4 3.5-5.4 4.8-7.9 7a65 65 0 0 1-9.5 7.4l-1.2.7-1 .4-.5.2-.4.2-.6.2-.6.2c0-.2 2.9-1.2 6.8-4.3q2.9-2.2 6.5-5.7 3.4-3.5 7.9-7.1t9-5.7l4.4-1.8a48 48 0 0 1 11.8-2.5z" class="prefix__st1"/>
					</g>
				</g>
			</g>
			<g id="prefix__svg_245">
				<g id="prefix__svg_246">
					<g id="prefix__svg_247">
						<path id="prefix__svg_248" stroke-miterlimit="10" d="m312.3 167.4.4-1.5 1.1-4.3A145 145 0 0 0 317 146q.6-5.1.1-11a38 38 0 0 0-6.4-18.3l-4.3-5.8c-3-3.8-6.4-7.6-9.2-12l-1-1.8-.5-.8-.4-1q-.9-1.6-1.6-3.4l-.4-.9-.3-.9-.6-1.8-.6-1.8-.5-1.8q-1.7-7.1-2.8-13.8a145 145 0 0 0-2.9-13.2l-.2-.7-.9-2.8-.5-1.3-1-2.5-1-2.4q-2.5-4.5-5.5-7.2a17 17 0 0 0-10.1-4.3h-1.6.4l1.2-.2q1.6-.1 4.3.7 2.8.8 6.1 3.4 3.2 2.7 5.8 7.2l1.1 2.4 1 2.5.6 1.4.5 1.3.4 1.4.2.7.2.8q1.7 5.8 2.8 12.5 1 6.6 2.9 13.8l.5 1.8.6 1.7.6 1.8.3.9.3.9 1.6 3.4.4.9.5.8 1 1.7c2.7 4.3 6 8.2 9 12l4.4 5.8a39 39 0 0 1 6.4 18.7A58 58 0 0 1 316 155a125 125 0 0 1-3.6 12.4z" class="prefix__st1"/>
					</g>
				</g>
			</g>
			<g id="prefix__svg_249">
				<g id="prefix__svg_250">
					<g id="prefix__svg_251">
						<path id="prefix__svg_252" stroke-miterlimit="10" d="m140.7 82.8 1.3-2.6.3-.5.4-.7.6-1.5a30 30 0 0 0 2-7l.2-1.7v-1.4q0-2.7.2-2.8t.5 2.8v3.1a24 24 0 0 1-2 7.4l-.8 1.5-.4.6-.4.6q-1.6 2.2-1.9 2.2z" class="prefix__st1"/>
					</g>
				</g>
			</g>
			<g id="prefix__svg_253">
				<g id="prefix__svg_254">
					<g id="prefix__svg_255">
						<path id="prefix__svg_256" stroke-miterlimit="10" d="M153.8 82s-1-.6-2.2-2a22 22 0 0 1-3.5-6.2 40 40 0 0 1-2-9.7l.9 2.7q.6 2.8 2 6.7c1.4 3.9 2.2 4.6 3.2 6q1.6 2.3 1.6 2.5z" class="prefix__st1"/>
					</g>
				</g>
			</g>
			<g id="prefix__svg_257">
				<g id="prefix__svg_258">
					<g id="prefix__svg_259">
						<path id="prefix__svg_260" stroke-miterlimit="10" d="M148.3 99.6c-.3 0-1-4-3-8.5-2.1-4.6-4.7-7.8-4.5-8q.3 0 2 2a24 24 0 0 1 3.3 5.6 35 35 0 0 1 2 6.2q.4 2.5.2 2.7z" class="prefix__st1"/>
					</g>
				</g>
			</g>
			<g id="prefix__svg_261">
				<g id="prefix__svg_262">
					<g id="prefix__svg_263">
						<path id="prefix__svg_264" stroke-miterlimit="10" d="M148.8 99q-.2-.1 0-2.5a35 35 0 0 1 4.3-14.3c.3.2-1.2 3.8-2.4 8.4s-1.6 8.5-2 8.5z" class="prefix__st1"/>
					</g>
				</g>
			</g>
			<g id="prefix__svg_265">
				<g id="prefix__svg_266">
					<g id="prefix__svg_267">
						<path id="prefix__svg_268" stroke-miterlimit="10" d="M126.7 64.8c-.2-.2 1.3-2.3 2.6-5.1 1.3-2.9 2-5.4 2.2-5.3q.2.1 0 1.7a16 16 0 0 1-4.8 8.7z" class="prefix__st1"/>
					</g>
				</g>
			</g>
			<g id="prefix__svg_269">
				<g id="prefix__svg_270">
					<g id="prefix__svg_271">
						<path id="prefix__svg_272" stroke-miterlimit="10" d="M137.2 64.5c-.2.2-2-1.7-3.6-4.5a15 15 0 0 1-2-5.3c.3-.1 1.3 2.2 2.9 4.9s2.9 4.7 2.7 5z" class="prefix__st1"/>
					</g>
				</g>
			</g>
			<g id="prefix__svg_273">
				<g id="prefix__svg_274">
					<g id="prefix__svg_275">
						<path id="prefix__svg_276" stroke-miterlimit="10" d="M133.3 74c-.2.1-1.4-2.2-3.1-4.7-1.8-2.6-3.5-4.5-3.3-4.7l1.4 1q1.3 1 2.6 3.2 1.4 2 2 3.6.6 1.5.4 1.6z" class="prefix__st1"/>
					</g>
				</g>
			</g>
			<g id="prefix__svg_277">
				<g id="prefix__svg_278">
					<g id="prefix__svg_279">
						<path id="prefix__svg_280" stroke-miterlimit="10" d="M133 74.3c-.3 0 .2-2.5 1.3-5.3 1-2.8 2.4-4.8 2.6-4.7s-.7 2.3-1.7 5c-1.1 2.8-2 5-2.2 5z" class="prefix__st1"/>
					</g>
				</g>
			</g>
			<g id="prefix__svg_281">
				<g id="prefix__svg_282">
					<g id="prefix__svg_283">
						<path id="prefix__svg_284" stroke-miterlimit="10" d="m170.5 63.2.2.5q0 .4.6.9l.6.3h.7l.6-.6q.3-.4.1-1l-.3-.8-.7-.2q-1 0-1.4.6t-.3 1l-.1.5-.3-.4v-.3l-.1-.3.2-.9q.6-.8 2-1.1.7 0 1.3.5t.7 1.3-.3 1.5-1 1h-1.3l-.9-.6q-.6-.8-.5-1.4t.2-.5z" class="prefix__st1"/>
					</g>
				</g>
			</g>
			<g id="prefix__svg_285">
				<g id="prefix__svg_286">
					<g id="prefix__svg_287">
						<path id="prefix__svg_288" stroke-miterlimit="10" d="M171.2 62a289 289 0 0 1 .7-39.7q.2.2 0 5.8l-.2 14-.2 14a31 31 0 0 1-.3 5.8z" class="prefix__st1"/>
					</g>
				</g>
			</g>
			<g id="prefix__svg_289">
				<g id="prefix__svg_290">
					<g id="prefix__svg_291">
						<path id="prefix__svg_292" stroke-miterlimit="10" d="m171 21.7.3.2.3.1h.5q.4-.3.5-1.1v-.8q0-.3-.3-.5l-.7-.1-.6.3q-.4.6-.2 1.1t.5.8l.3.3h-.4q-.6 0-1-.8l-.3-.9q-.1-.5.4-1 .3-.6 1-.7.8-.1 1.4.2.3.1.6.5t.2.6v1.2q0 .4-.4 1l-.8.5q-1 .1-1.3-.4-.2-.5 0-.5z" class="prefix__st1"/>
					</g>
				</g>
			</g>
			<g id="prefix__svg_293">
				<g id="prefix__svg_294">
					<g id="prefix__svg_295">
						<path id="prefix__svg_296" stroke-miterlimit="10" d="m214.6 2-6 2.5-14.8 5.8-20.8 8.3 1.6-.8q1.5-.9 4.3-2.1A301 301 0 0 1 214.6 2z" class="prefix__st1"/>
					</g>
				</g>
			</g>
			<g id="prefix__svg_297">
				<g id="prefix__svg_298">
					<g id="prefix__svg_299">
						<path id="prefix__svg_300" stroke-miterlimit="10" d="m214 2.3-.2-.3.2-1 .6-.7.9-.3q.6-.1 1 .3.5.3.7.9.3.7.1 1.1 0 .6-.5 1l-.8.4h-.8l-1-.7q-.1-.4 0-.4l.3.1.8.2q.5 0 .9-.3l.2-.5v-.6l-.4-.4-.5-.2q-.5 0-1 .4l-.3.7z" class="prefix__st1"/>
					</g>
				</g>
			</g>
			<g id="prefix__svg_301">
				<g id="prefix__svg_302">
					<g id="prefix__svg_303">
						<path id="prefix__svg_304" stroke-miterlimit="10" d="M239.3 37.4q-.4-.1-3.8-5A356 356 0 0 1 216 2q.4.1 3.6 5.1l8.1 12.6L236 32a41 41 0 0 1 3.3 5.3z" class="prefix__st1"/>
					</g>
				</g>
			</g>
			<g id="prefix__svg_305">
				<g id="prefix__svg_306">
					<g id="prefix__svg_307">
						<path id="prefix__svg_308" stroke-miterlimit="10" d="m238.9 37-.2.5-.1 1.1q0 .8.8 1.2.7.3 1.6-.3a1.3 1.3 0 0 0 .3-1.5l-.4-.7-.6-.2h-.5l-.3.3-.1.2v.2l-.2-.1-.1-.4q0-.4.4-.6.3-.3.8-.3 1.2 0 1.8 1.2.3.6.3 1.3 0 .4-.3.7-.1.4-.4.6c-.8.7-2 .8-2.7.4a2 2 0 0 1-.9-1l-.2-1q.1-.9.5-1.3.3-.3.5-.2z" class="prefix__st1"/>
					</g>
				</g>
			</g>
			<g id="prefix__svg_309">
				<g id="prefix__svg_310">
					<g id="prefix__svg_311">
						<path id="prefix__svg_312" stroke-miterlimit="10" d="m215.2 59.2-6.1.8q-5.9.4-14.8 1.5l-14.8 1.8q-5.8.8-6.1.7.1-.3 6-1.4a271 271 0 0 1 35.8-3.4z" class="prefix__st1"/>
					</g>
				</g>
			</g>
			<g id="prefix__svg_313">
				<g id="prefix__svg_314">
					<g id="prefix__svg_315">
						<path id="prefix__svg_316" stroke-miterlimit="10" d="M215.2 59h.4l.9.1q.5.1 1-.4l.2-.5-.1-.5-.6-.3h-1l-.3.4q-.2.5-.1.8v.4l-.3-.2q-.4-.4-.3-1.2l.1-.4.3-.3 1-.5h1l.5.3a2 2 0 0 1 .8 1.6 2 2 0 0 1-2.2 1.5q-.7-.2-1-.5-.3 0-.2-.3z" class="prefix__st1"/>
					</g>
				</g>
			</g>
			<g id="prefix__svg_317">
				<g id="prefix__svg_318">
					<g id="prefix__svg_319">
						<path id="prefix__svg_320" stroke-miterlimit="10" d="m96 44.7.5-.3 1.2.2h.6q.3 0 .3-.5l-.2-.6q-.2-.3-.7-.5l-1-.2h-1q-.7.2-.8.8v.2l.2.2.3.2h.4v.2l-.4.1h-.6l-.3-.4-.2-.5q0-1.2 1.3-1.7h1.2l1.3.2q.6.3 1.1.9t.3 1.3q0 .4-.3.6-.4.4-.6.4h-1l-.7-.3-.4-.2z" class="prefix__st1"/>
					</g>
				</g>
			</g>
			<g id="prefix__svg_321">
				<g id="prefix__svg_322">
					<g id="prefix__svg_323">
						<path id="prefix__svg_324" stroke-miterlimit="10" d="M61 63.8c-.2-.2.8-1.1 1.6-2.5s1.1-2.5 1.4-2.5q.2 0 .1 1a4 4 0 0 1-.7 2q-.7 1.2-1.6 1.7-.7.5-.8.3z" class="prefix__st1"/>
					</g>
				</g>
			</g>
			<g id="prefix__svg_325">
				<g id="prefix__svg_326">
					<g id="prefix__svg_327">
						<path id="prefix__svg_328" stroke-miterlimit="10" d="m67.5 63.8-1-.2a5 5 0 0 1-2.5-3.3q0-1 .2-1c.2 0 .5 1.2 1.4 2.4s2 1.8 1.9 2z" class="prefix__st1"/>
					</g>
				</g>
			</g>
			<g id="prefix__svg_329">
				<g id="prefix__svg_330">
					<g id="prefix__svg_331">
						<path id="prefix__svg_332" stroke-miterlimit="10" d="M64 67.9c-.3 0-.8-1-1.7-2.2q-1.7-1.8-1.7-2.1 0-.2.9.2A6 6 0 0 1 64 67q.3.7 0 .9z" class="prefix__st1"/>
					</g>
				</g>
			</g>
			<g id="prefix__svg_333">
				<g id="prefix__svg_334">
					<g id="prefix__svg_335">
						<path id="prefix__svg_336" stroke-miterlimit="10" d="M64.5 67c-.3 0-.2-1 .4-2 .6-1.1 1.5-1.7 1.6-1.5.3.2-.2 1-.7 2-.6.8-1 1.6-1.3 1.5z" class="prefix__st1"/>
					</g>
				</g>
			</g>
			<g id="prefix__svg_337">
				<g id="prefix__svg_338">
					<g id="prefix__svg_339">
						<path id="prefix__svg_340" stroke-miterlimit="10" d="m52 195.3 1.5-1.5.4-.4.3-.4.8-.9 1.6-2.3q.7-1.2 1.1-2.5l.4-1.2.1-.5.1-.5.5-2q.3 0 .2 2.1v.5l-.1.6-.3 1.3a13 13 0 0 1-2.9 5l-.9 1-.4.3-.5.4q-1.7 1.1-2 1z" class="prefix__st1"/>
					</g>
				</g>
			</g>
			<g id="prefix__svg_341">
				<g id="prefix__svg_342">
					<g id="prefix__svg_343">
						<path id="prefix__svg_344" stroke-miterlimit="10" d="M64.8 195.1q-.1.3-1.8-1-1.5-1.2-2.8-4a18 18 0 0 1-1-6.8l.6 1.9q.4 1.9 1.4 4.5 1 2.5 2.3 4c.7.9 1.4 1.3 1.3 1.4z" class="prefix__st1"/>
					</g>
				</g>
			</g>
			<g id="prefix__svg_345">
				<g id="prefix__svg_346">
					<g id="prefix__svg_347">
						<path id="prefix__svg_348" stroke-miterlimit="10" d="m59 206-.3-2v-.4l-.2-.5q0-.5-.3-1-.3-1.2-1-2.4l-1.5-2-.7-.8-.4-.3-.3-.3q-1.6-1.2-1.5-1.3t1.9.7l.4.3.4.3.9.8q.9.9 1.6 2.1t1 2.5l.3 1.2v1.1q0 1.9-.2 2z" class="prefix__st1"/>
					</g>
				</g>
			</g>
			<g id="prefix__svg_349">
				<g id="prefix__svg_350">
					<g id="prefix__svg_351">
						<path id="prefix__svg_352" stroke-miterlimit="10" d="M59.2 206q-.2 0-.4-1.8v-2a11 11 0 0 1 2.4-5.6l.6-.7q1.4-1.2 1.5-1l-1 1.5-.5.7-.5.9a15 15 0 0 0-1.6 4.3l-.2 1v.9q0 1.7-.3 1.8z" class="prefix__st1"/>
					</g>
				</g>
			</g>
			<g id="prefix__svg_353">
				<g id="prefix__svg_354">
					<g id="prefix__svg_355">
						<path id="prefix__svg_356" stroke-miterlimit="10" d="M106.7 151.7h.2l.2.2.5.1.6.1q.7 0 1.3-.7l.2-.7q0-.4-.4-.8-.8-.8-1.6-.5l-.5.5-.2.5.2.5.3.3.4.2-.5.2-.6-.3q-.3-.2-.5-.8-.1-1.1 1-2a2 2 0 0 1 1.5 0q.7.1 1.2.7t.6 1.4-.4 1.3a2 2 0 0 1-2 .8q-.5 0-.8-.2l-.5-.4v-.2l-.1-.1q-.1 0 0-.1z" class="prefix__st1"/>
					</g>
				</g>
			</g>
			<g id="prefix__svg_357">
				<g id="prefix__svg_358">
					<g id="prefix__svg_359">
						<path id="prefix__svg_360" stroke-miterlimit="10" d="m120 251.9-.2.2q-.3.3-1 .4l-1.7-.2-2-.5q-1-.2-2.4.3l-2.7 1q-1.5.5-3.3.7a8 8 0 0 1-3.7-.5l-1.6-1-1.2-1.5q-1-1.5-1.3-3.1a10 10 0 0 1 .5-5.7 9 9 0 0 1 2.2-3.2l.4-.4.4-.2.3-.1-.2.2-.3.3-.4.5a10 10 0 0 0-2 8.4q.2 1.5 1.1 2.8c1 1.3 1.4 1.7 2.4 2.1q1.6.7 3.2.5 1.7 0 3.1-.6l2.8-1a5 5 0 0 1 2.7-.2l2.1.7 1.5.3z" class="prefix__st1"/>
					</g>
				</g>
			</g>
			<g id="prefix__svg_361">
				<g id="prefix__svg_362">
					<g id="prefix__svg_363">
						<path id="prefix__svg_364" stroke-miterlimit="10" d="m124 245-1-1.1a32 32 0 0 1-4.7-9.3l-.5-1.8-.6-1.7-.7-1.7q-.4-.8-1.2-1.3t-1.6-.5c-1 0-1.2.1-1.7.3q-1.6.8-3 1.8-1.5 1-2.5 2a9 9 0 0 0-1.4 2.4l-1 2.2-.7 1.7-.4.5-.2.2-.2.1h-.4v-.1h.3l.1-.2.1-.2.3-.5.7-1.7.8-2.3q.4-1.2 1.4-2.6c1-1.4 1.6-1.6 2.5-2.2q1.4-1.2 3.3-2l2-.4q1.3 0 2.2.6c.9.6 1 1 1.4 1.7l.8 1.8.6 1.8.5 1.8a42 42 0 0 0 2.3 5.6q1 2.4 2 3.7z" class="prefix__st1"/>
					</g>
				</g>
			</g>
			<g id="prefix__svg_365">
				<g id="prefix__svg_366">
					<g id="prefix__svg_367">
						<path id="prefix__svg_368" stroke-miterlimit="10" d="m119.9 250.8.9-.8.4-.3.5-.5a8 8 0 0 0 1.4-2.6l.2-.6v-.6q.1-1 .3-1.2.3 0 .5 1.2v.7l-.1.7q-.1.9-.6 1.6a6 6 0 0 1-1.7 1.9l-.5.3q-1.2.4-1.3.2z" class="prefix__st1"/>
					</g>
				</g>
			</g>
			<g id="prefix__svg_369">
				<g id="prefix__svg_370">
					<g id="prefix__svg_371">
						<path id="prefix__svg_372" stroke-miterlimit="10" d="M109.5 235q.2 0 .6 1.3v1.6c0 1-.3 1.3-.8 1.9q-.3.4-.9.7c-.6.3-.6.2-1 .3a3 3 0 0 1-1.6-.3q-.6-.3-.8-.8-.1-.3 0-.4 0 .2 1 .6a3 3 0 0 0 2.6-.7q1-1.5.8-2.8z" class="prefix__st1"/>
					</g>
				</g>
			</g>
			<g id="prefix__svg_373">
				<g id="prefix__svg_374">
					<g id="prefix__svg_375">
						<path id="prefix__svg_376" stroke-miterlimit="10" d="M117.8 243.7q.2 0 .2.5a4 4 0 0 1-.7 2.4l-1 .8q-.5.3-1.3.4-.7 0-1.5-.6a3 3 0 0 1-.7-2.7q.6-1.4 1.6-1.7c1-.3 1-.2 1.4-.2q.5 0 .5.2t-.5.2-1.1.4l-.7.6-.4.7q-.2 1 .5 1.8l.9.3.9-.2q.9-.5 1.2-1.2l.5-1.3z" class="prefix__st1"/>
					</g>
				</g>
			</g>
			<g id="prefix__svg_377">
				<path id="prefix__svg_378" d="M170.4 195.4v1.4l-.2 1.8q0 1-.4 2.3a23 23 0 0 1-4.4 9.4 18 18 0 0 1-3.4 3 21 21 0 0 1-10.7 3.6h-2.7l-1.5-.2q-2.7-.4-5.5-1.6a21 21 0 0 1-8.9-8 22 22 0 0 1 9-31.4q2.6-1.2 5.4-1.7l1.4-.1h.7l.7-.1h1.4l1.3.1a20 20 0 0 1 11.2 5l.8.8.7.8.4.4.3.4.3.4.3.4.3.4.2.5.3.4.2.4a22 22 0 0 1 2.6 8.4l.1 1.7zm0 0v-1.5l-.2-.8-.1-1-.2-1-.3-1.3-.3-.6-.2-.6-.3-.7-.3-.7q-.7-1.5-1.8-3l-.2-.3-.3-.4-.3-.3-.3-.4-.3-.3-.3-.4q-.2 0-.4-.3l-.3-.4-.4-.3-.4-.4-.7-.7q-.7-.7-1.7-1.3a19 19 0 0 0-8.6-3.3l-1.3-.2h-1.9l-.6.1-1.3.1q-2.7.4-5.1 1.6-5.1 2.4-8.3 7.3a20.6 20.6 0 0 0 8.3 29.4q2.5 1.2 5 1.6l1.4.1h.6l.7.1h1.3l1.2-.2a19 19 0 0 0 10.3-4.6l.8-.7.3-.4.4-.3a24 24 0 0 0 4.2-5.8l.3-.7.3-.7.2-.6.3-.7.3-1.2.2-1 .2-1v-.8l.1-1z"/>
			</g>
			<g id="prefix__svg_379">
				<path id="prefix__svg_380" d="M93.1 111v1l-.2 1v.6l-.1.2-.5 1.7-.4 1-.5 1-.6 1a14 14 0 0 1-10.3 6h-3.2l-.5-.2-1-.1-.9-.3-.4-.1-.5-.2-.9-.4a17 17 0 0 1-6-4.8l-.6-.8-.3-.4-.2-.5-.2-.4-.2-.2v-.3l-.4-1q-.4-.9-.6-1.9l-.2-1v-1q-.1-2.1.5-4.2a13 13 0 0 1 4.7-6.5q.3-.4.8-.6l.4-.3.5-.3 1.7-.8 1-.4.4-.1.5-.1 1-.3.9-.1 1-.1h2.6l1 .2h.4l.4.1.9.3h.4l.4.2.8.3.8.4 1.3.8q2.7 1.7 4 3.9l.6 1 .5 1 .4 1 .3.9.2.8v.2l.1.1v.4l.2 1.1zm-.1 0v-1l-.2-1.1-.4-1.5q0-.4-.4-.9l-.4-.8q0-.2-.3-.5 0-.2-.3-.5l-.7-.9q-1.5-1.9-4-3.3l-1.4-.6-.7-.3-.7-.2-3-.6H77l-.8.1-.9.3H75l-.4.2-.9.3-1.6.7-.4.2-.4.3-.7.5q-1.6 1-2.7 2.5l-.5.8-.3.4-.2.4-.3.4v.2l-.2.2-.3.9a12 12 0 0 0-.8 3.8v.9l.1 1q0 .9.4 1.9a14 14 0 0 0 2.4 4.2l.7.6.3.4.4.3.8.6.8.5.4.2.4.2 1.7.8.8.2.5.1.4.1 1 .2.8.1h3.3q3.3-.5 6-2 2.5-1.3 4-3.2l.7-1 .3-.4.3-.5.4-.9.3-.8.4-1.5.2-1.1v-1z"/>
			</g>
			<g id="prefix__svg_381">
				<path id="prefix__svg_382" d="M52.9 151.4v.5l-.1 1.3q0 1.8-.7 5l-.2.8-.3.9-.6 1.8a32 32 0 0 1-4.6 8 23 23 0 0 1-16.3 8.5l-.8.1h-2.6l-.8-.1-1.8-.2a25 25 0 0 1-6.7-2.3 29 29 0 0 1-14.8-24.2v-3l.2-1a27 27 0 0 1 3.6-10.7 26 26 0 0 1 10.9-10 24 24 0 0 1 32 10.4L51 141l.5 1.8.3.9.2.8q.6 3.2.7 5v1.8zm-.3 0v-1.8a24 24 0 0 0-7-15.7 25 25 0 0 0-14.8-7.4H26l-1.6.2q-3.3.6-6.3 2-6.2 2.9-10.3 9a27 27 0 0 0-3.3 21A25 25 0 0 0 10 169l.6.7 1.3 1.2 1.4 1.1 1.5 1 1.5.9 1.5.7a23 23 0 0 0 8.1 2h3.2l.7-.2h.8l.8-.2.7-.1 3-.7 1.3-.5.7-.3.7-.3 1.2-.6 1.2-.7a25 25 0 0 0 8.2-7.8 24 24 0 0 0 4-12l.1-1.3z"/>
			</g>
			<g id="prefix__svg_383">
				<g id="prefix__svg_384">
					<g id="prefix__svg_385">
						<path id="prefix__svg_386" stroke-miterlimit="10" d="m51.7 143.3.5-1 1.5-3a34 34 0 0 0 1.8-4.9l.7-3v-1.8q0-.8-.7-1.5-1.2-1.4-3.3-1.7-2-.5-4.2-.5-4.5.2-9.1 2.2a74 74 0 0 0-18.2 12 96 96 0 0 0-16.8 19.3q-1.5 2.5-2.4 5l-.6 2.4v2.5l.1.5.2.6.4 1 1.2 2q1.4 1.6 3 2.7a8 8 0 0 0 3.2 1h1q2.1 0 3.3-.7 1.3-.6 1.9-1.1l.6-.4-.5.5a10 10 0 0 1-5.3 2.3H9l-1.1-.2q-1.2-.3-2.4-1a12 12 0 0 1-4.4-4.7l-.5-1.1-.2-.6-.2-.7q-.2-1.2 0-2.6.1-1.3.6-2.6 1-2.7 2.5-5.2a51 51 0 0 1 7.3-10q4.3-5 9.6-9.6 9-7.7 18.5-12a26 26 0 0 1 9.5-2.2q2.3 0 4.4.5l2 .7a5 5 0 0 1 1.6 1.3l.6 1 .2.9v1.9l-.8 3.2a34 34 0 0 1-3.6 7.7z" class="prefix__st1"/>
					</g>
				</g>
			</g>
			<g id="prefix__svg_387">
				<g id="prefix__svg_388">
					<g id="prefix__svg_389">
						<path id="prefix__svg_390" stroke-miterlimit="10" d="M200.3 165.9h.5l1-.2q.6-.2 1-1v-.7q0-.3-.6-.5c-.6-.2-.5-.1-.8 0l-.7.3q-.6.6-.8 1.3c-.3.8-.1 1.4-.3 1.5v-.1l-.2-.3q-.3-.4-.2-1.3c.1-.9.4-1.2 1-1.7q.3-.4 1-.6.7-.3 1.4 0 .4 0 .7.4l.3.7q.2.7 0 1.3 0 .3-.3.5 0 .3-.4.4-.4.3-.9.4-.9.1-1.3-.1z" class="prefix__st1"/>
					</g>
				</g>
			</g>
			<g id="prefix__svg_391">
				<g id="prefix__svg_392">
					<g id="prefix__svg_393">
						<path id="prefix__svg_394" stroke-miterlimit="10" d="m164 256.9.8.6a3 3 0 0 0 2.4.1 6 6 0 0 0 3.5-3.3q.3-.4.3-1v-1l-.6-1q-.8-.9-2-1c-1.2 0-1.4.2-2 .5l-1.6 1.3a10 10 0 0 0-1.8 2.7q-.1.6.1 1l.4.5.3.1h-.3q-.3.1-.7-.4l-.3-.5v-.8q0-.7.5-1.5l1.1-1.7q.6-.8 1.8-1.5l1.2-.4q.6-.2 1.4-.2 1.4.1 2.6 1.2 1 1.3.8 2.8 0 .8-.4 1.3l-.7 1.1q-.7 1-1.6 1.6c-1 .6-1.2.7-1.9.9q-1 .2-1.7 0-.7-.1-1.1-.5-.6-.4-.5-.6z" class="prefix__st1"/>
					</g>
				</g>
			</g>
			<g id="prefix__svg_395">
				<g id="prefix__svg_396">
					<g id="prefix__svg_397">
						<path id="prefix__svg_398" stroke-miterlimit="10" d="m294 143.8.4-.1q.3 0 .8-.4l.3-.5v-.5q0-.7-.9-1l-.6.2-.4.5v.5l.2.4q.5.3.8.2t.4-.1l-.2.4q-.5.4-1.3 0-.4 0-.7-.6t0-1.1q0-.6.6-1t1.3-.3a2 2 0 0 1 1.7 1.7q0 .7-.2 1l-.6.7q-.8.4-1.3.2-.3 0-.3-.2z" class="prefix__st1"/>
					</g>
				</g>
			</g>
			<g id="prefix__svg_399">
				<g id="prefix__svg_400">
					<g id="prefix__svg_401">
						<path id="prefix__svg_402" stroke-miterlimit="10" d="M256.3 62.5h1l.7-.1q.2 0 .3-.3l.2-.4V61q-.3-.2-.7-.1l-.5.2-.2.2V61q0-.3.5-.7l.6-.2.8.2q.7.7.5 1.7l-.5.8-.6.4q-.8.2-1.3 0l-.7-.4q-.2 0-.1-.3z" class="prefix__st1"/>
					</g>
				</g>
			</g>
			<g id="prefix__svg_403">
				<g id="prefix__svg_404">
					<g id="prefix__svg_405">
						<path id="prefix__svg_406" stroke-miterlimit="10" d="m264 54.8-.3-.1h-.2l-.2-.1h-.2l-.2-.1h-.4l-.1-.2v-.4l.5-.3h.6q.4 0 .6.3l.2.5v.3z" class="prefix__st1"/>
					</g>
				</g>
			</g>
			<g id="prefix__svg_407">
				<g id="prefix__svg_408">
					<g id="prefix__svg_409">
						<path id="prefix__svg_410" stroke-miterlimit="10" d="m276.4 35.9-3.3-1.7-.8-.4-.9-.3q-.9-.5-2-.8a35 35 0 0 0-9.3-2.1h-2l-1-.1h-1c-2.2 0-3.6.3-3.6.1q0-.2 3.6-.8h2a27 27 0 0 1 7 .6 32 32 0 0 1 6.7 2.4l.9.4.8.5q3 1.8 2.9 2.2z" class="prefix__st1"/>
					</g>
				</g>
			</g>
			<g id="prefix__svg_411">
				<g id="prefix__svg_412">
					<g id="prefix__svg_413">
						<path id="prefix__svg_414" stroke-miterlimit="10" d="m322 125-.4-1.3-1.3-3.4-2.4-4.7-3.6-5.5-4-5.3-5.8-8.5 3.2 3.8 3.3 4.2 4 5.3a57 57 0 0 1 6 10.5l1 3.5z" class="prefix__st1"/>
					</g>
				</g>
			</g>
			<circle id="prefix__svg_415" r="1.8" cy="207.8" cx="91.9"/>
			<path id="prefix__svg_416" d="M96.8 197.8v1.9z"/>
			<circle id="prefix__svg_417" r="2.5" cy="27.7" cx="132.4"/>
			<path id="prefix__svg_418" d="M139.7 33h1-2z"/>
			<circle id="prefix__svg_419" r="1.2" cy="100.3" cx="127.9"/>
			<circle id="prefix__svg_420" r="1.5" cy="104.8" cx="134.5"/>
			<circle id="prefix__svg_421" r="1.5" cy="112.5" cx="128.3"/>
			<circle id="prefix__svg_422" r="2" cy="99.9" cx="26.6"/>
			<circle id="prefix__svg_423" r="2" cy="93.4" cx="30.6"/>
			<circle id="prefix__svg_424" r="1.6" cy="104.2" cx="34.3"/>
			<circle id="prefix__svg_425" r="1.4" cy="214.8" cx="37.4"/>
			<circle id="prefix__svg_426" r="2.6" cy="224.5" cx="41.4"/>
			<circle id="prefix__svg_427" r="1.7" cy="216.5" cx="45.7"/>
			<g id="prefix__svg_428">
				<g id="prefix__svg_429">
					<g id="prefix__svg_430">
						<path id="prefix__svg_431" stroke-miterlimit="10" d="m158.8 176.9-1.5.4q-1.5.3-3.8 1.3-2.5 1.2-4.9 3.6-2.1 2.5-4.2 6.1-1 1.8-2.4 3.3-1.2 1.4-2.9 2.3t-3 1.4q-1.5.7-2.2 1.6a6 6 0 0 0-1.6 3.5v1.6q-.3 0-.4-1.6a6 6 0 0 1 1.5-4q1-1 2.3-1.8l3-1.5q1.5-.7 2.7-2.2 1.2-1.4 2.2-3 2-3.6 4.4-6.3a17 17 0 0 1 9.3-4.7z" class="prefix__st1"/>
					</g>
				</g>
			</g>
			<g id="prefix__svg_432">
				<g id="prefix__svg_433">
					<g id="prefix__svg_434">
						<path id="prefix__svg_435" stroke-miterlimit="10" d="m167 183.9-1.4.8-3.7 2.4q-2.2 1.8-4.3 4.8l-2 3.4q-1.3 1.8-3 3.2a23 23 0 0 1-3.7 2.2l-3.5 1.8a15 15 0 0 0-5 4.1q-.7 1.1-1.1 2.2l-.2.5v.4l-.2.5v2l-.2-.4-.1-.5V209l.2-.5q.4-1.2 1.2-2.4 1.6-2.6 5-4.5l3.5-1.9q1.8-.9 3.5-2.1a12 12 0 0 0 2.8-3q1.2-1.7 2-3.3a20 20 0 0 1 8.7-7.1z" class="prefix__st1"/>
					</g>
				</g>
			</g>
			<g id="prefix__svg_436">
				<g id="prefix__svg_437">
					<g id="prefix__svg_438">
						<path id="prefix__svg_439" stroke-miterlimit="10" d="M168.6 195.8q.2.1-.3 1-.6 1.1-2.3 2.2l-1.7 1.1-.8.6-.9.8q-1.6 1.9-3.2 4.2-1.7 2.5-3.9 4l-1.1.6-1 .4-.4.3-.3.3-.4.8-.5 1.6-.6 1.2q0 .3-.3.4l-.2.2-.3.1.5-.9.3-1.1.4-1.7.5-1 .4-.5.5-.4 1-.5 1-.5q2-1.4 3.6-3.8c1.6-2.4 2.1-3.1 3.4-4.3l1-.8 1-.7 1.7-1 2.3-1.7z" class="prefix__st1"/>
					</g>
				</g>
			</g>
		</g>
	</g>
</svg>