<svg width="250" height="450"
	xmlns="http://www.w3.org/2000/svg" version="1.1">
	<style>
      svg {
        fill: #444;
      }
      @media (prefers-color-scheme:dark) {
        svg {
          fill: #fafafa;
        }
      }
	</style>
	<g>
		<title>Layer 1</title>
		<g id="svg_65">
			<!-- <path id="svg_23" d="m126.71919,64.62594l30.238,33.602c0.95312,1.0625 2.2383,1.5664 3.5859,1.5664c1.0078,0 2.0703,-0.33594 2.9102,-1.0078l36.008,-27.328c8.3438,-6.3281 14.281,-14.223 17.137,-22.793c4.0898,-12.098 2.7422,-23.969 -3.6953,-31.809c-2.7422,-3.3594 -10.359,-11.199 -21.727,-11.312c-8.793,0.22266 -17.641,4.8711 -23.352,12.77c-4.1445,-8.793 -11.648,-15.289 -20.551,-16.91c-11.199,-2.0703 -20.16,4.2578 -23.52,7.1133c-7.6719,6.4414 -11.258,17.863 -9.5195,30.465c1.1172,9.0117 5.4844,17.859 12.484,25.645l0.0017,-0.0019zm3.1914,-48.777c1.9609,-1.6797 6.832,-5.1523 12.824,-5.1523c0.89453,0 1.793,0.05469 2.7422,0.22266c8.8477,1.625 15.625,10.863 16.129,22.008c0.11328,2.4062 1.9609,4.3672 4.3672,4.5938c2.3516,0.28125 4.5938,-1.3438 5.1523,-3.6953c2.5742,-10.754 10.922,-18.594 19.879,-18.594l0.11328,0c7.2812,0.05469 12.434,5.4336 14.391,7.8398c4.1992,5.0977 4.9297,13.777 1.9609,22.566c-2.2383,6.7188 -7.0547,13.047 -13.832,18.199l-32.48,24.641l-27.273,-30.297c-5.7109,-6.3281 -9.2383,-13.441 -10.191,-20.496c-1.2852,-9.1797 1.0664,-17.523 6.2188,-21.836l-0.00168,0.00034z"/> -->
			<path id="svg_24" d="m42.09919,398.60594c0,0.05469 0.05469,0.05469 0.11328,0.11328c0.05469,0.05469 0.05469,0.11328 0.05469,0.16797c8.9609,13.609 28.84,37.688 60.871,46.648c8.5156,2.293 17.418,3.4688 26.492,3.4688c19.992,0 40.711,-5.6562 59.586,-16.574c27.441,-15.848 47.266,-40.656 54.32,-68.098c8.2891,-32.199 -2.6328,-61.488 -9.9102,-76.047c0,-0.05469 -0.05469,-0.05469 -0.11328,-0.11328c0,-0.05469 0,-0.11328 -0.05469,-0.16797l-32.199,-55.609l33.266,-71.398c1.9023,-4.1992 2.9688,-8.7344 2.9688,-13.105c0,-12.098 -7.1133,-23.297 -18.145,-28.449c-15.68,-7.2227 -34.273,-0.39062 -41.441,15.176l-14.785,31.809l-29.344,-50.734c-8.625,-14.895 -27.777,-19.992 -42.672,-11.426c-7.2227,4.1992 -12.375,10.922 -14.559,18.984c-2.1836,8.0625 -1.0625,16.52 3.1367,23.742l53.93,93.238c-7.8945,-1.9023 -16.016,-0.83984 -23.016,3.1914c-7.2227,4.1445 -12.375,10.922 -14.504,18.984c-0.61719,2.2969 -0.89453,4.6484 -1.0078,7c-2.0703,-1.1211 -4.2578,-2.0156 -6.5508,-2.6328c-8.1211,-2.1836 -16.52,-1.0625 -23.688,3.0781c-7.2227,4.1445 -12.375,10.922 -14.504,18.984c-0.61719,2.2969 -0.89453,4.6484 -1.0078,7c-2.0703,-1.1211 -4.2578,-2.0156 -6.5508,-2.6328c-8.0625,-2.1836 -16.52,-1.0625 -23.688,3.0781c-14.895,8.625 -20.047,27.777 -11.426,42.672l34.4279,59.6522zm144.65,-259.9c4.9297,-10.754 17.809,-15.457 28.672,-10.473c7.6172,3.5859 12.543,11.312 12.543,19.711c0,3.0234 -0.72656,6.1602 -2.0703,9.0703l-30.406,65.238l-26.375,-45.641l17.6363,-37.9053zm-162.79,165.98c4.9844,-2.8555 10.809,-3.6406 16.406,-2.1289c5.6016,1.5117 10.246,5.0391 13.105,10.023l29.566,51.238c0.39062,0.72656 1.0078,1.2305 1.625,1.625c0.16797,0.11328 0.39062,0.16797 0.55859,0.28125c0.50391,0.22266 1.0078,0.39063 1.5664,0.39063c0.11328,0 0.28125,0.11328 0.39062,0.11328c0.05469,0 0.16797,-0.05469 0.22266,-0.05469c0.72656,-0.05468 1.5117,-0.16797 2.1836,-0.55859c2.2969,-1.3438 3.0781,-4.2578 1.793,-6.6094l-29.566,-51.238c-2.8555,-4.9844 -3.6406,-10.809 -2.1289,-16.406c1.5117,-5.6016 5.0391,-10.246 10.023,-13.105c10.305,-5.9922 23.574,-2.4062 29.512,7.8945l29.566,51.238c0.39062,0.72656 1.0078,1.2305 1.625,1.625c0.16797,0.11328 0.39062,0.16797 0.55859,0.28125c0.50391,0.22266 1.0078,0.39062 1.5664,0.39062c0.11328,0 0.28125,0.11328 0.39062,0.11328c0.05469,0 0.16797,-0.05468 0.22266,-0.05468c0.72656,-0.05469 1.5117,-0.16797 2.1836,-0.55859c2.2969,-1.3438 3.0781,-4.2578 1.793,-6.6094l-29.566,-51.238c-5.9375,-10.305 -2.4062,-23.574 7.8945,-29.512c4.9844,-2.8555 10.809,-3.6406 16.406,-2.1289c5.4336,1.457 9.9102,4.8711 12.824,9.5742l29.008,50.176l0.89453,1.5664c0.39062,0.67188 1.0078,1.1758 1.625,1.625c0.16797,0.11328 0.39062,0.16797 0.61719,0.28125c0.50391,0.22266 1.0078,0.33594 1.5664,0.39062c0.16797,0 0.28125,0.11328 0.44922,0.11328c0.05469,0 0.16797,-0.05469 0.22266,-0.05469c0.72656,-0.05469 1.457,-0.16797 2.1836,-0.55859c2.2969,-1.3438 3.0781,-4.2578 1.793,-6.6094l-29.566,-51.238c-0.11328,-0.16797 -0.22266,-0.33594 -0.33594,-0.50391l-65.062,-112.23c-2.9102,-4.9844 -3.6406,-10.809 -2.1836,-16.406c1.5117,-5.6016 5.0391,-10.246 10.078,-13.105c10.305,-5.9375 23.574,-2.4062 29.512,7.8945l99.625,172.15c6.6641,13.383 16.688,40.098 9.1836,69.215c-6.4414,24.922 -24.586,47.543 -49.84,62.16c-25.258,14.559 -53.93,18.984 -78.734,12.098c-28.953,-8.0625 -47.098,-30.07 -55.383,-42.559l-34.328,-59.477c-5.9375,-10.359 -2.4102,-23.574 7.9531,-29.512l-0.0001,-0.00232z"/>
		</g>
	</g>
</svg>